# xmcd CD database file
#
# Track frame offsets:
#	150
#	14894
#	30464
#	48309
#	67951
#	83367
#	103147
#	121970
#	138482
#	156112
#	172089
#	190274
#	207910
#	225667
#	244318
#
# Disc length: 3502 seconds
#
# Revision: 0
# Processed by: cddbd v1.5.2PL0 Copyright (c) Steve Scherf et al.
# Submitted via: CDex 1.51
#
DISCID=cb0dac0f
DTITLE=Los Nemus Del Pacifico - The Best
DYEAR=2001
DGENRE=Salsa
TTITLE0=Me Gusta Todo
TTITLE1=Te Sigo Amando
TTITLE2=Lindas Y Bellas
TTITLE3=Coero, Maraca Y Bongo
TTITLE4=Brujeria
TTITLE5=Playa, Brisa Y Mar
TTITLE6=La Mujer Es Para Quererla
TTITLE7=Para La Luna
TTITLE8=El Picaflor
TTITLE9=Una Novia Valluna
TTITLE10=Felina
TTITLE11=La Lengua Viperina
TTITLE12=Por Telefono
TTITLE13=La Primera Rumba
TTITLE14=Nadie Sabe Lo Que Tiene Adentro
EXTD=YEAR: 2001
EXTT0=
EXTT1=
EXTT2=
EXTT3=
EXTT4=
EXTT5=
EXTT6=
EXTT7=
EXTT8=
EXTT9=
EXTT10=
EXTT11=
EXTT12=
EXTT13=
EXTT14=
PLAYORDER=
